{
	"asset":{
		"generator":"Khronos glTF Blender I/O v3.6.27",
		"version":"2.0"
	},
	"scene":0,
	"scenes":[
		{
			"name":"Scene",
			"nodes":[
				0,
				1,
				2,
				3,
				4,
				5,
				6,
				7,
				8,
				9,
				10,
				11,
				12,
				13,
				14,
				15,
				16,
				17,
				18,
				19,
				20,
				21,
				22,
				23,
				24,
				25,
				26,
				27,
				28,
				29,
				30,
				31,
				32,
				33,
				34
			]
		}
	],
	"nodes":[
		{
			"extras":{
				"isDrawSurface":true
			},
			"mesh":0,
			"name":"showroom.004",
			"rotation":[
				0,
				-0.7071068286895752,
				0,
				0.7071067094802856
			],
			"scale":[
				22.98326873779297,
				22.37810516357422,
				22.98326873779297
			],
			"translation":[
				0,
				-0.11140850186347961,
				0
			]
		},
		{
			"name":"ezpanel",
			"rotation":[
				0,
				-0.537299633026123,
				0,
				0.8433914184570312
			],
			"scale":[
				6.199999809265137,
				3.5,
				1
			],
			"translation":[
				-49.34574508666992,
				11.54169750213623,
				5.737973690032959
			]
		},
		{
			"name":"ezpanel.001",
			"rotation":[
				0,
				-0.8434314727783203,
				0,
				0.5372368097305298
			],
			"scale":[
				6.1999993324279785,
				3.5,
				1
			],
			"translation":[
				-49.34575271606445,
				11.54169750213623,
				-5.737986087799072
			]
		},
		{
			"name":"ezpanel.002",
			"rotation":[
				0,
				-1,
				0,
				4.371138828673793e-08
			],
			"scale":[
				6.199999809265137,
				3.5,
				1
			],
			"translation":[
				-37.040611267089844,
				11.54169750213623,
				-13.577223777770996
			]
		},
		{
			"name":"ezpanel.003",
			"rotation":[
				0,
				0.866025447845459,
				0,
				0.4999999403953552
			],
			"scale":[
				6.200000286102295,
				3.5,
				1
			],
			"translation":[
				-25.282398223876953,
				11.54169750213623,
				-6.788610458374023
			]
		},
		{
			"name":"ezpanel.004",
			"rotation":[
				0,
				0.4999999701976776,
				0,
				0.8660253882408142
			],
			"scale":[
				6.199999809265137,
				3.5,
				1
			],
			"translation":[
				-25.282400131225586,
				11.54169750213623,
				6.788610458374023
			]
		},
		{
			"name":"ezpanel.005",
			"scale":[
				6.199999809265137,
				3.5,
				1
			],
			"translation":[
				-37.040618896484375,
				11.54169750213623,
				13.577218055725098
			]
		},
		{
			"name":"ezpanel.006",
			"rotation":[
				0,
				0.843391478061676,
				0,
				0.5372995734214783
			],
			"scale":[
				6.199999809265137,
				3.5,
				1
			],
			"translation":[
				49.34574508666992,
				11.54169750213623,
				-5.737978458404541
			]
		},
		{
			"name":"ezpanel.007",
			"rotation":[
				0,
				0.5372368097305298,
				0,
				0.8434314727783203
			],
			"scale":[
				6.200000286102295,
				3.5,
				1
			],
			"translation":[
				49.34575271606445,
				11.54169750213623,
				5.73798131942749
			]
		},
		{
			"name":"ezpanel.008",
			"scale":[
				6.199999809265137,
				3.5,
				1
			],
			"translation":[
				37.040611267089844,
				11.54169750213623,
				13.577221870422363
			]
		},
		{
			"name":"ezpanel.009",
			"rotation":[
				0,
				-0.4999998211860657,
				0,
				0.8660255074501038
			],
			"scale":[
				6.199999809265137,
				3.5,
				1
			],
			"translation":[
				25.282398223876953,
				11.54169750213623,
				6.788608551025391
			]
		},
		{
			"name":"ezpanel.010",
			"rotation":[
				0,
				-0.8660253882408142,
				0,
				0.5
			],
			"scale":[
				6.199999809265137,
				3.5,
				1
			],
			"translation":[
				25.282400131225586,
				11.54169750213623,
				-6.788612365722656
			]
		},
		{
			"name":"ezpanel.011",
			"rotation":[
				0,
				-1,
				0,
				1.6292068494294654e-07
			],
			"scale":[
				6.199999809265137,
				3.5,
				1
			],
			"translation":[
				37.040618896484375,
				11.54169750213623,
				-13.57721996307373
			]
		},
		{
			"name":"ezpanel.012",
			"rotation":[
				0,
				-0.043619394302368164,
				0,
				0.9990482330322266
			],
			"scale":[
				6.199999809265137,
				3.5,
				1
			],
			"translation":[
				-38.34054183959961,
				1.9720735549926758,
				14.858264923095703
			]
		},
		{
			"name":"ezpanel.013",
			"rotation":[
				0,
				-0.4999999701976776,
				0,
				0.8660253882408142
			],
			"scale":[
				6.199999809265137,
				3.5,
				1
			],
			"translation":[
				-49.95740509033203,
				1.9720735549926758,
				7.457504749298096
			]
		},
		{
			"name":"ezpanel.014",
			"rotation":[
				0,
				-0.866025447845459,
				0,
				0.4999999403953552
			],
			"scale":[
				6.200000286102295,
				3.5,
				1
			],
			"translation":[
				-49.95740509033203,
				1.972074270248413,
				-7.457518100738525
			]
		},
		{
			"name":"ezpanel.015",
			"rotation":[
				0,
				-0.9990458488464355,
				0,
				0.04367377236485481
			],
			"scale":[
				6.1999993324279785,
				3.5,
				1
			],
			"translation":[
				-38.34054183959961,
				1.972074270248413,
				-14.858275413513184
			]
		},
		{
			"name":"ezpanel.016",
			"rotation":[
				0,
				0.2588190734386444,
				0,
				0.965925931930542
			],
			"scale":[
				6.199999809265137,
				3.5,
				1
			],
			"translation":[
				-33.12499237060547,
				1.972074270248413,
				6.782050609588623
			]
		},
		{
			"name":"ezpanel.017",
			"rotation":[
				0,
				-0.2588191330432892,
				0,
				0.9659258127212524
			],
			"scale":[
				6.200000286102295,
				3.5,
				1
			],
			"translation":[
				-40.956233978271484,
				1.972074270248413,
				6.782052516937256
			]
		},
		{
			"name":"ezpanel.018",
			"rotation":[
				0,
				-0.7071068286895752,
				0,
				0.7071067094802856
			],
			"scale":[
				6.200000762939453,
				3.5,
				1
			],
			"translation":[
				-44.871856689453125,
				1.972074270248413,
				-3.9637088775634766e-06
			]
		},
		{
			"name":"ezpanel.019",
			"rotation":[
				0,
				-0.965925931930542,
				0,
				0.258819043636322
			],
			"scale":[
				6.199999809265137,
				3.5,
				1
			],
			"translation":[
				-40.95623779296875,
				1.972074270248413,
				-6.782063007354736
			]
		},
		{
			"name":"ezpanel.020",
			"rotation":[
				0,
				0.9659258127212524,
				0,
				0.2588191032409668
			],
			"scale":[
				6.199999809265137,
				3.5,
				1
			],
			"translation":[
				-33.124996185302734,
				1.972074270248413,
				-6.782064914703369
			]
		},
		{
			"name":"ezpanel.021",
			"rotation":[
				0,
				0.9990482330322266,
				0,
				0.043619342148303986
			],
			"scale":[
				6.199999809265137,
				3.5,
				1
			],
			"translation":[
				38.34054183959961,
				1.9720735549926758,
				-14.858268737792969
			]
		},
		{
			"name":"ezpanel.022",
			"rotation":[
				0,
				0.866025447845459,
				0,
				0.4999999403953552
			],
			"scale":[
				6.200000286102295,
				3.5,
				1
			],
			"translation":[
				49.95740509033203,
				1.9720735549926758,
				-7.457509517669678
			]
		},
		{
			"name":"ezpanel.023",
			"rotation":[
				0,
				0.4999999701976776,
				0,
				0.8660253882408142
			],
			"scale":[
				6.199999809265137,
				3.5,
				1
			],
			"translation":[
				49.95740509033203,
				1.972074270248413,
				7.457513332366943
			]
		},
		{
			"name":"ezpanel.024",
			"rotation":[
				0,
				0.043673817068338394,
				0,
				0.9990458488464355
			],
			"scale":[
				6.19999885559082,
				3.5,
				1
			],
			"translation":[
				38.34054183959961,
				1.972074270248413,
				14.858271598815918
			]
		},
		{
			"name":"ezpanel.025",
			"rotation":[
				0,
				-0.9659258127212524,
				0,
				0.2588191628456116
			],
			"scale":[
				6.200000286102295,
				3.5,
				1
			],
			"translation":[
				33.12499237060547,
				1.972074270248413,
				-6.782053470611572
			]
		},
		{
			"name":"ezpanel.026",
			"rotation":[
				0,
				0.965925931930542,
				0,
				0.258819043636322
			],
			"scale":[
				6.199999809265137,
				3.5,
				1
			],
			"translation":[
				40.956233978271484,
				1.972074270248413,
				-6.7820563316345215
			]
		},
		{
			"name":"ezpanel.027",
			"rotation":[
				0,
				0.70710688829422,
				0,
				0.7071066498756409
			],
			"scale":[
				6.1999993324279785,
				3.5,
				1
			],
			"translation":[
				44.871856689453125,
				1.972074270248413,
				0
			]
		},
		{
			"name":"ezpanel.028",
			"rotation":[
				0,
				0.2588191032409668,
				0,
				0.9659258127212524
			],
			"scale":[
				6.199999809265137,
				3.5,
				1
			],
			"translation":[
				40.95623779296875,
				1.972074270248413,
				6.782059192657471
			]
		},
		{
			"name":"ezpanel.029",
			"rotation":[
				0,
				-0.25881895422935486,
				0,
				0.9659258723258972
			],
			"scale":[
				6.200000286102295,
				3.5,
				1
			],
			"translation":[
				33.124996185302734,
				1.972074270248413,
				6.78206205368042
			]
		},
		{
			"extras":{
				"isDrawSurface":true
			},
			"mesh":1,
			"name":"showroom.001",
			"rotation":[
				0,
				-0.7071068286895752,
				0,
				0.7071067094802856
			],
			"scale":[
				22.98326873779297,
				22.37810516357422,
				22.98326873779297
			],
			"translation":[
				0,
				-0.11140850186347961,
				0
			]
		},
		{
			"extras":{
				"isDrawSurface":true
			},
			"mesh":2,
			"name":"showroom.002",
			"rotation":[
				0,
				-0.7071068286895752,
				0,
				0.7071067094802856
			],
			"scale":[
				22.98326873779297,
				22.37810516357422,
				22.98326873779297
			],
			"translation":[
				0,
				-0.11140850186347961,
				0
			]
		},
		{
			"extras":{
				"isDrawSurface":true
			},
			"mesh":3,
			"name":"showroom.003",
			"rotation":[
				0,
				-0.7071068286895752,
				0,
				0.7071067094802856
			],
			"scale":[
				22.98326873779297,
				22.37810516357422,
				22.98326873779297
			],
			"translation":[
				0,
				-0.11140850186347961,
				0
			]
		},
		{
			"extras":{
				"isDrawSurface":true
			},
			"mesh":4,
			"name":"showroom.005",
			"rotation":[
				0,
				-0.7071068286895752,
				0,
				0.7071067094802856
			],
			"scale":[
				22.98326873779297,
				22.37810516357422,
				22.98326873779297
			],
			"translation":[
				0,
				-0.11140850186347961,
				0
			]
		}
	],
	"meshes":[
		{
			"extras":{
				"isDrawSurface":true
			},
			"name":"Sphere.001",
			"primitives":[
				{
					"attributes":{
						"POSITION":0,
						"NORMAL":1,
						"TEXCOORD_0":2,
						"TEXCOORD_1":3
					},
					"indices":4
				}
			]
		},
		{
			"extras":{
				"isDrawSurface":true
			},
			"name":"Sphere.002",
			"primitives":[
				{
					"attributes":{
						"POSITION":5,
						"NORMAL":6,
						"TEXCOORD_0":7,
						"TEXCOORD_1":8
					},
					"indices":9
				}
			]
		},
		{
			"extras":{
				"isDrawSurface":true
			},
			"name":"Sphere.003",
			"primitives":[
				{
					"attributes":{
						"POSITION":10,
						"NORMAL":11,
						"TEXCOORD_0":12,
						"TEXCOORD_1":13
					},
					"indices":14
				}
			]
		},
		{
			"extras":{
				"isDrawSurface":true
			},
			"name":"Sphere.004",
			"primitives":[
				{
					"attributes":{
						"POSITION":15,
						"NORMAL":16,
						"TEXCOORD_0":17,
						"TEXCOORD_1":18
					},
					"indices":19
				}
			]
		},
		{
			"extras":{
				"isDrawSurface":true
			},
			"name":"Sphere.005",
			"primitives":[
				{
					"attributes":{
						"POSITION":20,
						"NORMAL":21,
						"TEXCOORD_0":22,
						"TEXCOORD_1":23
					},
					"indices":24
				}
			]
		}
	],
	"accessors":[
		{
			"bufferView":0,
			"componentType":5126,
			"count":246,
			"max":[
				1.3422024250030518,
				0.0010575519409030676,
				2.9495368003845215
			],
			"min":[
				-1.34220290184021,
				0.00014129054034128785,
				-2.9495368003845215
			],
			"type":"VEC3"
		},
		{
			"bufferView":1,
			"componentType":5126,
			"count":246,
			"type":"VEC3"
		},
		{
			"bufferView":2,
			"componentType":5126,
			"count":246,
			"type":"VEC2"
		},
		{
			"bufferView":3,
			"componentType":5126,
			"count":246,
			"type":"VEC2"
		},
		{
			"bufferView":4,
			"componentType":5123,
			"count":288,
			"type":"SCALAR"
		},
		{
			"bufferView":5,
			"componentType":5126,
			"count":4593,
			"max":[
				1.3064364194869995,
				1.3033853769302368,
				3.008676052093506
			],
			"min":[
				-1.3064366579055786,
				-0.035158783197402954,
				-3.008676052093506
			],
			"type":"VEC3"
		},
		{
			"bufferView":6,
			"componentType":5126,
			"count":4593,
			"type":"VEC3"
		},
		{
			"bufferView":7,
			"componentType":5126,
			"count":4593,
			"type":"VEC2"
		},
		{
			"bufferView":8,
			"componentType":5126,
			"count":4593,
			"type":"VEC2"
		},
		{
			"bufferView":9,
			"componentType":5123,
			"count":7902,
			"type":"SCALAR"
		},
		{
			"bufferView":10,
			"componentType":5126,
			"count":29734,
			"max":[
				1.3397622108459473,
				0.7655897736549377,
				2.860112190246582
			],
			"min":[
				-1.3228142261505127,
				-0.012268266640603542,
				-2.860112190246582
			],
			"type":"VEC3"
		},
		{
			"bufferView":11,
			"componentType":5126,
			"count":29734,
			"type":"VEC3"
		},
		{
			"bufferView":12,
			"componentType":5126,
			"count":29734,
			"type":"VEC2"
		},
		{
			"bufferView":13,
			"componentType":5126,
			"count":29734,
			"type":"VEC2"
		},
		{
			"bufferView":14,
			"componentType":5123,
			"count":38754,
			"type":"SCALAR"
		},
		{
			"bufferView":15,
			"componentType":5126,
			"count":7331,
			"max":[
				1.6696971654891968,
				0.43511614203453064,
				3.2770907878875732
			],
			"min":[
				-1.6696971654891968,
				-0.0041976869106292725,
				-3.2770907878875732
			],
			"type":"VEC3"
		},
		{
			"bufferView":16,
			"componentType":5126,
			"count":7331,
			"type":"VEC3"
		},
		{
			"bufferView":17,
			"componentType":5126,
			"count":7331,
			"type":"VEC2"
		},
		{
			"bufferView":18,
			"componentType":5126,
			"count":7331,
			"type":"VEC2"
		},
		{
			"bufferView":19,
			"componentType":5123,
			"count":9438,
			"type":"SCALAR"
		},
		{
			"bufferView":20,
			"componentType":5126,
			"count":11339,
			"max":[
				1.0738250017166138,
				0.7702452540397644,
				2.654644727706909
			],
			"min":[
				-1.0738128423690796,
				-0.02877974510192871,
				-2.654644727706909
			],
			"type":"VEC3"
		},
		{
			"bufferView":21,
			"componentType":5126,
			"count":11339,
			"type":"VEC3"
		},
		{
			"bufferView":22,
			"componentType":5126,
			"count":11339,
			"type":"VEC2"
		},
		{
			"bufferView":23,
			"componentType":5126,
			"count":11339,
			"type":"VEC2"
		},
		{
			"bufferView":24,
			"componentType":5123,
			"count":14835,
			"type":"SCALAR"
		}
	],
	"bufferViews":[
		{
			"buffer":0,
			"byteLength":2952,
			"byteOffset":0,
			"target":34962
		},
		{
			"buffer":0,
			"byteLength":2952,
			"byteOffset":2952,
			"target":34962
		},
		{
			"buffer":0,
			"byteLength":1968,
			"byteOffset":5904,
			"target":34962
		},
		{
			"buffer":0,
			"byteLength":1968,
			"byteOffset":7872,
			"target":34962
		},
		{
			"buffer":0,
			"byteLength":576,
			"byteOffset":9840,
			"target":34963
		},
		{
			"buffer":0,
			"byteLength":55116,
			"byteOffset":10416,
			"target":34962
		},
		{
			"buffer":0,
			"byteLength":55116,
			"byteOffset":65532,
			"target":34962
		},
		{
			"buffer":0,
			"byteLength":36744,
			"byteOffset":120648,
			"target":34962
		},
		{
			"buffer":0,
			"byteLength":36744,
			"byteOffset":157392,
			"target":34962
		},
		{
			"buffer":0,
			"byteLength":15804,
			"byteOffset":194136,
			"target":34963
		},
		{
			"buffer":0,
			"byteLength":356808,
			"byteOffset":209940,
			"target":34962
		},
		{
			"buffer":0,
			"byteLength":356808,
			"byteOffset":566748,
			"target":34962
		},
		{
			"buffer":0,
			"byteLength":237872,
			"byteOffset":923556,
			"target":34962
		},
		{
			"buffer":0,
			"byteLength":237872,
			"byteOffset":1161428,
			"target":34962
		},
		{
			"buffer":0,
			"byteLength":77508,
			"byteOffset":1399300,
			"target":34963
		},
		{
			"buffer":0,
			"byteLength":87972,
			"byteOffset":1476808,
			"target":34962
		},
		{
			"buffer":0,
			"byteLength":87972,
			"byteOffset":1564780,
			"target":34962
		},
		{
			"buffer":0,
			"byteLength":58648,
			"byteOffset":1652752,
			"target":34962
		},
		{
			"buffer":0,
			"byteLength":58648,
			"byteOffset":1711400,
			"target":34962
		},
		{
			"buffer":0,
			"byteLength":18876,
			"byteOffset":1770048,
			"target":34963
		},
		{
			"buffer":0,
			"byteLength":136068,
			"byteOffset":1788924,
			"target":34962
		},
		{
			"buffer":0,
			"byteLength":136068,
			"byteOffset":1924992,
			"target":34962
		},
		{
			"buffer":0,
			"byteLength":90712,
			"byteOffset":2061060,
			"target":34962
		},
		{
			"buffer":0,
			"byteLength":90712,
			"byteOffset":2151772,
			"target":34962
		},
		{
			"buffer":0,
			"byteLength":29670,
			"byteOffset":2242484,
			"target":34963
		}
	],
	"buffers":[
		{
			"byteLength":2272156,
			"uri":"data:application/octet-stream;base64,"
		}
	]
}
